<svg width="393" height="206" viewBox="0 0 393 206" fill="none" xmlns="http://www.w3.org/2000/svg">
<path d="M37.2842 0.87207C58.9918 0.87207 77.4929 14.6244 84.5801 33.9062C88.777 32.7711 93.191 32.166 97.7461 32.166C125.573 32.166 148.131 54.7637 148.131 82.6396C148.131 110.516 125.573 133.113 97.7461 133.113C85.479 133.113 74.238 128.719 65.5 121.42C56.762 128.719 45.521 133.113 33.2539 133.113C21.9109 133.113 11.4445 129.357 3.02344 123.021C-5.39767 129.357 -15.8648 133.113 -27.208 133.113C-55.0345 133.113 -77.5928 110.516 -77.5928 82.6396C-77.5927 54.7638 -55.0345 32.1662 -27.208 32.166C-21.3189 32.166 -15.6654 33.1779 -10.4121 35.0381C-3.64316 15.1648 15.1543 0.872259 37.2842 0.87207Z" fill="#38FFD7" fill-opacity="0.24"/>
<path d="M378.893 73.5547C400.6 73.5548 419.1 87.307 426.188 106.589C430.384 105.454 434.798 104.849 439.354 104.849C467.18 104.849 489.738 127.446 489.738 155.322C489.738 183.198 467.18 205.796 439.354 205.796C427.087 205.796 415.845 201.403 407.107 194.104C398.369 201.403 387.128 205.796 374.861 205.796C363.518 205.796 353.052 202.04 344.631 195.703C336.21 202.04 325.743 205.796 314.4 205.796C286.574 205.796 264.016 183.198 264.016 155.322C264.016 127.446 286.574 104.849 314.4 104.849C320.289 104.849 325.942 105.861 331.195 107.721C337.964 87.8472 356.762 73.5547 378.893 73.5547Z" fill="#38FFD7" fill-opacity="0.24"/>
</svg>
