<?xml version="1.0" encoding="UTF-8"?>
<svg version="1.1" xmlns="http://www.w3.org/2000/svg" width="393" height="194">
<path d="M0 0 C0.33 0.33 0.66 0.66 1 1 C2.155 1.165 3.31 1.33 4.5 1.5 C8 2 8 2 9 3 C9.13916572 7.03580599 9.05732072 10.63059979 8.4375 14.625 C7.77046276 17.95407982 7.77046276 17.95407982 8.875 20.875 C9.05865956 25.46648896 6.85888033 27.71675486 3.9765625 31.14453125 C1.38369807 33.5785443 -0.47473818 34 -4 34 C-7.37566702 34.57868578 -8.66246127 35.53735356 -11 38 C-4.66275996 52.30872537 2.86623377 64.2774267 17 72 C17.77085937 72.47179687 18.54171875 72.94359375 19.3359375 73.4296875 C25.53219619 76.80426531 30.72871376 77.24924354 37.625 77.3125 C43.7680569 77.38368744 47.76983293 77.59500072 52.5625 81.875 C54.65320116 84.15500006 56.27983464 86.41975196 58 89 C58.73855792 83.27617611 58.99565682 77.7725978 58.8125 72 C58.7516189 65.02150384 59.9107993 58.77474935 64.42578125 53.2578125 C66 52 66 52 69.375 51.5625 C73.66138462 52.07982228 75.08920634 52.84664021 78 56 C81.3551629 62.12256004 81.47026148 67.67096462 81.5625 74.5625 C81.45654131 83.5423977 81.45654131 83.5423977 84 92 C85.84974664 93.23222734 85.84974664 93.23222734 88 94 C89.41033639 95.08037089 90.78514808 96.20836088 92.125 97.375 C92.80820312 97.96023437 93.49140625 98.54546875 94.1953125 99.1484375 C96.94550509 101.97006366 97.92324746 104.07896951 98.25 108 C97 111 97 111 94.69921875 112.2734375 C92.15570698 113.28796412 89.61616185 114.19283573 87 115 C87.59638333 116.27450447 88.20247416 117.54446877 88.8125 118.8125 C89.14894531 119.52019531 89.48539062 120.22789063 89.83203125 120.95703125 C91.0955207 123.16708136 91.89475241 124.54858481 94 126 C97.10117963 126.18140293 97.10117963 126.18140293 100.5625 125.75 C101.71878906 125.64171875 102.87507813 125.5334375 104.06640625 125.421875 C106.13086519 125.20046332 108.19518576 124.97728778 110.25756836 124.73730469 C132.35226279 122.2954114 154.10494797 123.63696853 175.19140625 130.71875 C175.79807129 130.91307617 176.40473633 131.10740234 177.02978516 131.30761719 C179 132 179 132 181.24755859 133.04394531 C185.26042817 134.6960668 187.7975194 135.38494964 192.01391602 134.03515625 C195.28638907 132.42014974 198.38352302 130.64814836 201.5 128.75 C202.5828125 128.12480469 203.665625 127.49960938 204.78125 126.85546875 C206.77225209 125.70317629 208.75563274 124.53753926 210.72851562 123.35449219 C213 122 213 122 215 121 C215 145.09 215 169.18 215 194 C85.31 194 -44.38 194 -178 194 C-178 169.91 -178 145.82 -178 121 C-173.50600528 118.75300264 -169.83123945 117.20187035 -165.1015625 115.80078125 C-164.44134094 115.60448624 -163.78111938 115.40819122 -163.10089111 115.20594788 C-160.94421212 114.56793426 -158.78488511 113.93956726 -156.625 113.3125 C-155.51732269 112.98792816 -155.51732269 112.98792816 -154.38726807 112.65679932 C-138.3736458 107.97092534 -122.22221879 103.89452168 -106 100 C-106.600924 97.9792737 -107.27194381 95.97847887 -108 94 C-109.98361458 92.99671731 -109.98361458 92.99671731 -112.3125 92.875 C-116.54887308 92.20645803 -118.8965116 91.1034884 -122 88 C-123.42672903 85.14654194 -123.30549231 83.16706581 -123 80 C-121.34765625 77.39453125 -121.34765625 77.39453125 -119.0625 74.8125 C-118.23621094 73.85730469 -117.40992188 72.90210937 -116.55859375 71.91796875 C-115.71425781 70.95503906 -114.86992188 69.99210937 -114 69 C-112.53459215 67.21411495 -111.07612707 65.42250821 -109.625 63.625 C-106.24783902 59.50521723 -102.85915654 55.39540594 -99.4375 51.3125 C-98.97641846 50.76158691 -98.51533691 50.21067383 -98.0402832 49.64306641 C-94.72815273 45.73572781 -91.20981998 42.17298756 -87.36328125 38.78125 C-85.73722308 37.04571955 -85.73722308 37.04571955 -86.078125 34.5234375 C-86 32 -86 32 -84.12109375 30.0078125 C-78.72071289 26.218899 -73.25280309 22.91414455 -67.3125 20.0625 C-66.70784912 19.76811035 -66.10319824 19.4737207 -65.48022461 19.17041016 C-60.93591003 17.0983847 -56.91464089 16.42806685 -52 16 C-51.505 17.485 -51.505 17.485 -51 19 C-50.01 18.505 -50.01 18.505 -49 18 C-46.67583704 17.91413191 -44.34916693 17.89288957 -42.0234375 17.90234375 C-40.99556625 17.90446617 -40.99556625 17.90446617 -39.94692993 17.90663147 C-37.75624239 17.91223325 -35.5656567 17.92478594 -33.375 17.9375 C-31.89062648 17.94251478 -30.40625135 17.94707772 -28.921875 17.95117188 C-25.28121685 17.96220323 -21.64061836 17.97946901 -18 18 C-17.814375 16.1128125 -17.814375 16.1128125 -17.625 14.1875 C-17.30131941 10.89674737 -16.93395001 9.90092502 -15 7 C-14.61500109 5.34450469 -14.27206865 3.6777567 -14 2 C-13.236875 2.04125 -12.47375 2.0825 -11.6875 2.125 C-7.28089158 1.92004147 -4.81572173 -0.31406881 0 0 Z M-3 14 C-4.77759876 18.96920684 -4.77759876 18.96920684 -4 24 C-4 25.32 -4 26.64 -4 28 C-2.68 28 -1.36 28 0 28 C-0.33 27.01 -0.66 26.02 -1 25 C0.32 24.34 1.64 23.68 3 23 C2.67 22.01 2.34 21.02 2 20 C1.34 20 0.68 20 0 20 C-0.66 18.02 -1.32 16.04 -2 14 C-2.33 14 -2.66 14 -3 14 Z M-20 23 C-18.02 25.97 -16.04 28.94 -14 32 C-12.35 31.34 -10.7 30.68 -9 30 C-9.71901361 26.86974337 -9.71901361 26.86974337 -12.25 25.375 C-15.25763579 23.72043776 -15.25763579 23.72043776 -20 23 Z M69 56 C64.51116706 61.0329339 63.87425593 64.3355643 64 71 C65.32 71 66.64 71 68 71 C68.99 72.98 69.98 74.96 71 77 C71.66 77 72.32 77 73 77 C73 84.59 73 92.18 73 100 C75.475 99.505 75.475 99.505 78 99 C78.66 99.99 79.32 100.98 80 102 C79.21625 102.309375 78.4325 102.61875 77.625 102.9375 C75.07669872 103.92875038 75.07669872 103.92875038 73 105 C73 113.25 73 121.5 73 130 C82.89843312 129.38426752 82.89843312 129.38426752 88 128 C86.91590753 125.74842333 85.81639417 123.73871477 84.375 121.6875 C82.64443594 118.30503387 82.77956192 115.74744738 83 112 C89.625 109.125 89.625 109.125 93 108 C92.73889725 104.71317719 91.81741353 103.82449897 89.3828125 101.484375 C88.2990427 100.57034022 87.21299858 99.65899706 86.125 98.75 C77.579355 91.1508189 77.579355 91.1508189 77 85 C76.95770474 81.42957499 76.97159456 77.87112867 77.04907227 74.30175781 C77.14153823 68.09626402 76.76622175 62.22604225 72.51953125 57.2734375 C71.07494917 55.78589543 71.07494917 55.78589543 69 56 Z M-41 70 C-43.96235695 73.63323689 -43.96235695 73.63323689 -45 78 C-40.38 78 -35.76 78 -31 78 C-31.763125 77.236875 -32.52625 76.47375 -33.3125 75.6875 C-34.79181337 74.20818663 -36.26192812 72.71866979 -37.6875 71.1875 C-38.95218271 69.77636223 -38.95218271 69.77636223 -41 70 Z M64 74 C63.96261719 74.94101563 63.92523438 75.88203125 63.88671875 76.8515625 C63.82097656 78.09679687 63.75523437 79.34203125 63.6875 80.625 C63.62949219 81.85476562 63.57148438 83.08453125 63.51171875 84.3515625 C62.84260719 89.12217469 61.41943206 92.58056794 58 96 C57.44471389 97.43819103 56.95062801 98.90066269 56.5 100.375 C55.56291909 103.42051297 54.49274932 106.18179223 53 109 C53.99 109.5259375 53.99 109.5259375 55 110.0625 C57 112 57 112 57.75 115 C57.4476732 120.92056657 52.55355352 125.60345021 49 130 C48.25234375 130.93585938 47.5046875 131.87171875 46.734375 132.8359375 C45.87585938 133.90714844 45.87585938 133.90714844 45 135 C45.66 135.66 46.32 136.32 47 137 C49.0869593 136.90816235 49.0869593 136.90816235 51.4375 136.3125 C52.76394531 136.01472656 52.76394531 136.01472656 54.1171875 135.7109375 C62.10741292 134.42102614 62.10741292 134.42102614 69 131 C70.18414548 121.44119176 70.18414548 121.44119176 67.5078125 112.55859375 C65.66658521 110.79684791 65.66658521 110.79684791 63.69140625 109.328125 C61.45711203 107.57371383 60.73698079 105.70226289 60 103 C64.38968456 103 65.76905739 105.12805101 69 108 C69.11703447 103.83357303 69.18753101 99.6675741 69.25 95.5 C69.28351563 94.32695313 69.31703125 93.15390625 69.3515625 91.9453125 C69.43214927 84.77309011 68.84033859 80.10825508 65 74 C64.67 74 64.34 74 64 74 Z M-49.2109375 84.40625 C-49.80132812 85.2621875 -50.39171875 86.118125 -51 87 C-54.08258376 88.97946176 -56.42101383 89.22674207 -60.04394531 89.13525391 C-61.04468079 89.11508209 -62.04541626 89.09491028 -63.07647705 89.0741272 C-64.14952087 89.04193085 -65.2225647 89.0097345 -66.328125 88.9765625 C-67.43226746 88.95153656 -68.53640991 88.92651062 -69.67401123 88.90072632 C-73.19965523 88.81857291 -76.72473525 88.72196398 -80.25 88.625 C-82.64060198 88.56675577 -85.03122709 88.50945259 -87.421875 88.453125 C-93.2815621 88.31300092 -99.14085155 88.16100762 -105 88 C-104.57405412 89.44096586 -104.13373367 90.87768712 -103.6875 92.3125 C-103.44386719 93.11300781 -103.20023437 93.91351563 -102.94921875 94.73828125 C-101.94297133 97.13588312 -101.04303239 98.40783955 -99 100 C-96.46715514 100.04358137 -96.46715514 100.04358137 -93.63671875 99.41796875 C-92.53674561 99.22726807 -91.43677246 99.03656738 -90.3034668 98.84008789 C-89.11019775 98.62473389 -87.91692871 98.40937988 -86.6875 98.1875 C-67.73259762 95.12993862 -47.47952158 93.43081617 -28.71484375 98.34375 C-26.03421588 98.99172911 -23.7452273 99.12089074 -21 99 C-21.40069421 93.18993391 -22.07244494 89.56445589 -26 85 C-30.61070458 82.17147113 -34.24647773 81.54311441 -39.625 81.5 C-41.56246094 81.45359375 -41.56246094 81.45359375 -43.5390625 81.40625 C-47.14081097 81.66113515 -47.14081097 81.66113515 -49.2109375 84.40625 Z M25 82 C25 83.65 25 85.3 25 87 C26.093125 86.938125 27.18625 86.87625 28.3125 86.8125 C32 87 32 87 33.875 88.125 C35.47060215 90.78433692 35.81462005 92.91033418 36 96 C35.0625 98.875 35.0625 98.875 34 101 C37.23726071 100.31009613 37.23726071 100.31009613 38.375 97.3125 C39.17904954 93.05103744 38.39899985 91.55980624 36 88 C32.62680284 84.71797033 29.51250751 83.25930442 25 82 Z M-19 86 C-19.03376469 91.30780919 -18.70055133 95.94099307 -17 101 C-13.65628943 103.78200959 -10.0848814 104.94908806 -5.97949219 106.28710938 C-2.33627815 107.59916969 1.05991664 109.42212081 4.5 111.1875 C5.1698291 111.52128662 5.8396582 111.85507324 6.52978516 112.19897461 C9.37033624 113.61853483 12.13347795 115.08159023 14.84375 116.73828125 C16.87132102 118.16834573 16.87132102 118.16834573 19 118 C20.83717315 110.58569409 21.23576736 103.62314474 21 96 C20.15050781 96.1959375 19.30101562 96.391875 18.42578125 96.59375 C7.81219042 97.85237423 -4.06621747 91.51932812 -13.61328125 87.390625 C-16.69816666 85.87338755 -16.69816666 85.87338755 -19 86 Z M43 115 C43 119.95 43 124.9 43 130 C46.37643535 126.62356465 48.79214948 124.14838232 51.3125 120.3125 C51.82425781 119.54550781 52.33601562 118.77851562 52.86328125 117.98828125 C54.16544087 116.09233429 54.16544087 116.09233429 54 114 C48.35496446 112.9032702 48.35496446 112.9032702 43 115 Z " fill="#030403" transform="translate(178,0)"/>
<path d="M0 0 C4.51288576 3.85644045 6.26783047 9.44621732 8.48828125 14.8046875 C15.56022762 31.85993542 26.39279296 44.01124736 43.11328125 52.1171875 C43.36541915 56.4035318 43.47024821 60.08828272 42.05078125 64.1796875 C40.11328125 66.1171875 40.11328125 66.1171875 36.92578125 66.36328125 C21.27515107 65.3530459 4.24589145 55.5536621 -7.88671875 46.1171875 C-8.86898437 45.39789063 -8.86898437 45.39789063 -9.87109375 44.6640625 C-15.32951982 40.41862 -19.11794702 35.20021958 -20.4140625 28.31640625 C-20.66256277 25.90969812 -20.83118601 23.53538609 -20.88671875 21.1171875 C-21.87671875 21.1171875 -22.86671875 21.1171875 -23.88671875 21.1171875 C-23.60137659 22.99316039 -23.30813381 24.8679323 -23.01171875 26.7421875 C-22.83898437 27.84433594 -22.66625 28.94648437 -22.48828125 30.08203125 C-21.99215351 33.22650419 -21.99215351 33.22650419 -20.38671875 36.3046875 C-19.75412166 39.86304611 -20.52898212 40.55793656 -22.51171875 43.4921875 C-23.07761719 44.25402344 -23.64351563 45.01585937 -24.2265625 45.80078125 C-25.79955262 47.99556511 -26.94300882 50.11038682 -28.07421875 52.5546875 C-29.88671875 56.1171875 -29.88671875 56.1171875 -32.88671875 58.1171875 C-35.92802165 58.33884052 -38.87487314 58.44529949 -41.91796875 58.453125 C-42.82309204 58.4597818 -43.72821533 58.4664386 -44.6607666 58.47329712 C-46.5874631 58.48343741 -48.51419481 58.48811372 -50.44091797 58.48779297 C-53.32062457 58.4920889 -56.19869785 58.52817278 -59.078125 58.56640625 C-71.50195662 58.63951597 -82.85418679 57.198647 -94.88671875 54.1171875 C-93.30021302 50.8174459 -91.49054893 48.24808942 -89.13671875 45.4296875 C-88.33621094 44.46804687 -87.53570312 43.50640625 -86.7109375 42.515625 C-86.26411621 41.9803418 -85.81729492 41.44505859 -85.35693359 40.89355469 C-83.73265067 38.93103683 -82.13109463 36.95123509 -80.53125 34.96875 C-66.3814908 17.48034926 -49.66705688 -0.45635246 -26.265625 -4.63671875 C-16.37804408 -5.65957195 -8.48193489 -5.5321957 0 0 Z " fill="#2D2D2D" transform="translate(155.88671875,26.8828125)"/>
<path d="M0 0 C1.25 2.0625 1.25 2.0625 2 4 C1.49597656 4.52851562 0.99195312 5.05703125 0.47265625 5.6015625 C-1.49335524 8.80350164 -0.97970896 10.68463619 -0.5625 14.375 C-0.46875 17.87890625 -0.46875 17.87890625 -1 21 C-3.26912184 23.192584 -5.48356551 24.27487493 -8.32421875 25.62890625 C-15.0073532 29.05340288 -18.78128329 35.37749517 -21.2890625 42.2578125 C-22.54657307 47.10821042 -22.82842622 52.00720295 -23 57 C-21.68 57.33 -20.36 57.66 -19 58 C-19.495 58.99 -19.495 58.99 -20 60 C-17.69 60 -15.38 60 -13 60 C-13 61.65 -13 63.3 -13 65 C-14.32 65 -15.64 65 -17 65 C-16.690625 66.258125 -16.38125 67.51625 -16.0625 68.8125 C-15.88847656 69.52019531 -15.71445312 70.22789062 -15.53515625 70.95703125 C-15.08989295 72.65683202 -14.55566015 74.33301954 -14 76 C-13.21625 76.0825 -12.4325 76.165 -11.625 76.25 C-9 77 -9 77 -7.6875 79.0625 C-7.460625 79.701875 -7.23375 80.34125 -7 81 C-7.99 81.495 -7.99 81.495 -9 82 C-9 83.32 -9 84.64 -9 86 C-16.26 86 -23.52 86 -31 86 C-29.35 83.03 -27.7 80.06 -26 77 C-24.54429952 69.75610775 -24.54429952 69.75610775 -25.875 62.625 C-26.91750421 60.84090097 -26.91750421 60.84090097 -29 60 C-33.94269981 59.7569164 -37.49009758 59.74504879 -42 62 C-42.18175781 61.37351563 -42.36351562 60.74703125 -42.55078125 60.1015625 C-42.80214844 59.28429687 -43.05351563 58.46703125 -43.3125 57.625 C-43.55613281 56.81289062 -43.79976562 56.00078125 -44.05078125 55.1640625 C-44.91368185 52.66815371 -44.91368185 52.66815371 -48 51 C-51.79876537 51.14069501 -54.40596863 51.67598289 -57.75 53.5 C-60.84484075 56.93871194 -61.83899629 60.58252248 -63 65 C-63.67546875 64.90460938 -64.3509375 64.80921875 -65.046875 64.7109375 C-65.93890625 64.60007812 -66.8309375 64.48921875 -67.75 64.375 C-69.07257813 64.20097656 -69.07257813 64.20097656 -70.421875 64.0234375 C-73.36098513 63.80105428 -73.36098513 63.80105428 -77 66 C-77 50.49 -77 34.98 -77 19 C-50.99143972 10.724549 -50.99143972 10.724549 -42.75 8.4375 C-41.23369995 8.01597656 -41.23369995 8.01597656 -39.68676758 7.5859375 C-31.72322759 5.40645521 -23.72160931 3.40201876 -15.6875 1.5 C-14.02315918 1.09865845 -14.02315918 1.09865845 -12.32519531 0.68920898 C-11.29362305 0.45145752 -10.26205078 0.21370605 -9.19921875 -0.03125 C-8.29002686 -0.24330078 -7.38083496 -0.45535156 -6.4440918 -0.67382812 C-3.91358287 -1.01153264 -2.36742447 -0.93101333 0 0 Z " fill="#3D5E43" transform="translate(78,105)"/>
<path d="M0 0 C2.90126021 1.20245502 5.66324835 2.59353998 8.4375 4.0625 C10.933125 5.361875 13.42875 6.66125 16 8 C16 18.56 16 29.12 16 40 C-27.23 40 -70.46 40 -115 40 C-115 27 -115 27 -113 25 C-109.45128958 24.70705525 -105.94276563 24.58485842 -102.38476562 24.52148438 C-101.27198242 24.4818457 -101.27198242 24.4818457 -100.13671875 24.44140625 C-99.46342529 24.42795166 -98.79013184 24.41449707 -98.09643555 24.40063477 C-95.83710511 24.10024538 -95.83710511 24.10024538 -93.59716797 22.4934082 C-90.56117292 20.74766824 -88.78422761 20.64401352 -85.30859375 20.6640625 C-84.2098291 20.65528076 -83.11106445 20.64649902 -81.97900391 20.63745117 C-80.22595947 20.63128784 -80.22595947 20.63128784 -78.4375 20.625 C-54.50368405 20.04895072 -31.47899282 12.25663708 -10.578125 0.56640625 C-6.29125462 -1.31026954 -4.47126473 -1.27255264 0 0 Z " fill="#3D5E43" transform="translate(371,142)"/>
<path d="M0 0 C-2.43804581 2.80650465 -4.91334898 4.03622511 -8.3125 5.48828125 C-9.37903809 5.94468994 -10.44557617 6.40109863 -11.54443359 6.87133789 C-12.68477051 7.34692139 -13.82510742 7.82250488 -15 8.3125 C-16.16740723 8.80161865 -17.33481445 9.2907373 -18.53759766 9.79467773 C-38.14843464 17.88861477 -55.74740205 22.45325446 -77 22 C-76.67 20.92363281 -76.34 19.84726563 -76 18.73828125 C-74.53747777 13.27096183 -74.7938635 9.39421707 -77.3046875 4.41015625 C-79.65446468 0.42956356 -82.18925493 -3.33088368 -85 -7 C-55.7751933 -11.85508885 -27.70085819 -11.40623573 0 0 Z " fill="#5C916A" transform="translate(361,138)"/>
<path d="M0 0 C3.03406233 0.62064199 5.27236405 1.60757725 7.890625 3.25 C8.59960938 3.6934375 9.30859375 4.136875 10.0390625 4.59375 C11.13347656 5.28984375 11.13347656 5.28984375 12.25 6 C12.99507812 6.4640625 13.74015625 6.928125 14.5078125 7.40625 C18.55999224 9.95927167 18.55999224 9.95927167 20 11 C20 11.33 20 11.66 20 12 C19.39414063 12.08636719 18.78828125 12.17273438 18.1640625 12.26171875 C10.31365101 13.57817237 3.41739242 16.05224923 -2.671875 21.3046875 C-23.99524954 39.29419063 -50.96286583 36.1879619 -77 35 C-77.02578125 33.74703125 -77.0515625 32.4940625 -77.078125 31.203125 C-77.13441169 29.55204877 -77.1917589 27.90100845 -77.25 26.25 C-77.26417969 25.425 -77.27835938 24.6 -77.29296875 23.75 C-77.44218335 20.04947797 -77.60154078 17.64196892 -79.57958984 14.45507812 C-82.8548396 12.48609603 -85.76184499 12.42526569 -89.4765625 12.46875 C-90.564496 12.46300964 -90.564496 12.46300964 -91.67440796 12.45715332 C-93.20922228 12.45443541 -94.74408302 12.46178837 -96.27880859 12.47851562 C-98.59711765 12.49974468 -100.91226175 12.4788115 -103.23046875 12.453125 C-116.61136556 12.4270688 -125.19037517 15.22644734 -134.69140625 24.68359375 C-135.33916016 25.33521484 -135.33916016 25.33521484 -136 26 C-134.33760218 17.91730716 -130.28426353 13.19556607 -124 8 C-117.29390703 3.87317356 -110.97091833 3.85814268 -103.32421875 3.90234375 C-102.3990596 3.9037587 -101.47390045 3.90517365 -100.52070618 3.90663147 C-97.57627073 3.91221285 -94.63191233 3.92476195 -91.6875 3.9375 C-89.68685006 3.94251741 -87.68619892 3.94707989 -85.68554688 3.95117188 C-80.79033506 3.96217619 -75.89518058 3.97942802 -71 4 C-70.97421875 5.31355469 -70.9484375 6.62710938 -70.921875 7.98046875 C-70.86558171 9.7161785 -70.80823465 11.4518543 -70.75 13.1875 C-70.73582031 14.05181641 -70.72164063 14.91613281 -70.70703125 15.80664062 C-70.55532428 19.76619258 -70.25328833 22.49394584 -68.46142578 26.07397461 C-65.0504175 28.74303277 -62.02545971 28.70170463 -57.8671875 28.62890625 C-56.6793718 28.63252419 -56.6793718 28.63252419 -55.46755981 28.63621521 C-53.79147336 28.63523678 -52.1153546 28.6218437 -50.43945312 28.59692383 C-47.90379654 28.56288655 -45.37168235 28.5761936 -42.8359375 28.59570312 C-29.72040554 28.58469806 -19.70349025 26.46945431 -10 17 C-5.67157988 11.77227706 -2.35084457 6.36110883 0 0 Z " fill="#D0E0E8" transform="translate(199,126)"/>
<path d="M0 0 C-0.42699316 8.62820654 -1.33604924 17.13130565 -2.5 25.6875 C-2.63059814 26.65574707 -2.76119629 27.62399414 -2.89575195 28.62158203 C-3.87005746 35.61017238 -3.87005746 35.61017238 -5 39 C-8.96 39 -12.92 39 -17 39 C-18.45800159 32.43899285 -19.19362266 26.26069321 -19.1875 19.5625 C-19.18814453 18.87671875 -19.18878906 18.1909375 -19.18945312 17.484375 C-19.15336854 14.15803251 -18.87937243 11.19951216 -18 8 C-19.41925781 8.0314209 -19.41925781 8.0314209 -20.8671875 8.06347656 C-24.46045091 8.13722406 -28.0536516 8.18227544 -31.64746094 8.21972656 C-33.18728977 8.23954171 -34.72704658 8.2666021 -36.26660156 8.30175781 C-49.59528038 8.59795068 -62.00972765 7.4227034 -74 1 C-74 0.34 -74 -0.32 -74 -1 C-55.76458043 -10.11770979 -18.69087642 -7.96092885 0 0 Z " fill="#3C5C42" transform="translate(156,104)"/>
<path d="M0 0 C12.61229876 4.49205161 24.42991147 10.28815278 36 17 C35.56101003 25.34080951 29.92734903 32.92038846 23.9765625 38.46484375 C17.48350464 43.50787091 11.136734 45.60628706 3 46 C2.608125 45.05125 2.21625 44.1025 1.8125 43.125 C-0.25044378 39.56820038 -1.2551371 39.2625888 -5 38 C-4.57202849 29.35202401 -3.66140045 20.82660321 -2.5 12.25 C-2.36940186 11.27337402 -2.23880371 10.29674805 -2.10424805 9.29052734 C-1.97703369 8.37480957 -1.84981934 7.4590918 -1.71875 6.515625 C-1.60466797 5.69352539 -1.49058594 4.87142578 -1.37304688 4.02441406 C-1 2 -1 2 0 0 Z " fill="#3D5D43" transform="translate(160,105)"/>
<path d="M0 0 C0 21.45 0 42.9 0 65 C-45.21 65 -90.42 65 -137 65 C-137 63.02 -137 61.04 -137 59 C-92.12 59 -47.24 59 -1 59 C-1.33 46.46 -1.66 33.92 -2 21 C-8.27 18.03 -14.54 15.06 -21 12 C-18.62035172 9.62035172 -17.09431401 8.32408665 -14.27734375 6.73828125 C-13.22256836 6.14370117 -13.22256836 6.14370117 -12.14648438 5.53710938 C-11.41751953 5.13298828 -10.68855469 4.72886719 -9.9375 4.3125 C-9.20466797 3.89677734 -8.47183594 3.48105469 -7.71679688 3.05273438 C-2.25796644 0 -2.25796644 0 0 0 Z " fill="#3E5F44" transform="translate(392,127)"/>
<path d="M0 0 C1.44787777 0.02513677 2.89579801 0.04794038 4.34375 0.06835938 C7.85506426 0.12287811 11.36475195 0.20884467 14.875 0.3125 C17.71127298 5.98504597 15.875 12.9704008 15.875 19.3125 C-0.955 19.3125 -17.785 19.3125 -35.125 19.3125 C-32.82408016 12.40974047 -32.82408016 12.40974047 -30.125 9.25 C-29.609375 8.61964844 -29.09375 7.98929688 -28.5625 7.33984375 C-19.67113218 -0.05538045 -11.03118695 -0.33569873 0 0 Z " fill="#D4E5ED" transform="translate(102.125,141.6875)"/>
<path d="M0 0 C5.94 0 11.88 0 18 0 C17.67 0.66 17.34 1.32 17 2 C16.75 5 16.75 5 17 8 C17.66 8.66 18.32 9.32 19 10 C22.09926819 9.67801034 22.09926819 9.67801034 25 9 C25.93380961 4.46859347 25.93380961 4.46859347 25 0 C30.61 0 36.22 0 42 0 C42.36799758 7.35995154 42.4836543 12.92982187 38 19 C34.11804664 23.16911156 29.83200424 25.62890979 24.16796875 26.37109375 C17.05555554 26.52956167 12.39740269 25.78377686 7 21 C2.98600395 17.07839772 0.14262263 13.19179613 -0.11328125 7.46484375 C-0.12378144 4.97629816 -0.06633822 2.48768339 0 0 Z " fill="#3C5D42" transform="translate(69,165)"/>
<path d="M0 0 C1.20849609 0.00322266 2.41699219 0.00644531 3.66210938 0.00976562 C5.55606445 0.02233398 5.55606445 0.02233398 7.48828125 0.03515625 C9.39963867 0.04192383 9.39963867 0.04192383 11.34960938 0.04882812 C14.50004689 0.06062752 17.65039074 0.07709028 20.80078125 0.09765625 C20.80078125 2.40765625 20.80078125 4.71765625 20.80078125 7.09765625 C19.48078125 7.09765625 18.16078125 7.09765625 16.80078125 7.09765625 C17.29578125 10.06765625 17.29578125 10.06765625 17.80078125 13.09765625 C19.45078125 13.09765625 21.10078125 13.09765625 22.80078125 13.09765625 C23.29578125 15.07765625 23.29578125 15.07765625 23.80078125 17.09765625 C20.90438007 17.17886376 18.01027213 17.23825046 15.11328125 17.28515625 C14.29666016 17.31029297 13.48003906 17.33542969 12.63867188 17.36132812 C7.82231639 17.41982637 4.76102971 17.17068001 0.80078125 14.09765625 C0.80078125 15.08765625 0.80078125 16.07765625 0.80078125 17.09765625 C-12.06921875 17.09765625 -24.93921875 17.09765625 -38.19921875 17.09765625 C-35.24466204 14.14309954 -33.0250109 12.83008962 -29.32421875 10.99609375 C-28.174375 10.42375 -27.02453125 9.85140625 -25.83984375 9.26171875 C-25.24236328 8.96813477 -24.64488281 8.67455078 -24.02929688 8.37207031 C-22.20258225 7.47430928 -20.38028752 6.56805541 -18.55859375 5.66015625 C-7.06886004 -0.03318714 -7.06886004 -0.03318714 0 0 Z " fill="#3D5E43" transform="translate(173.19921875,164.90234375)"/>
<path d="M0 0 C3.28000089 2.2076929 3.7237769 2.82980918 5.25 6.1875 C6.24 6.991875 7.23 7.79625 8.25 8.625 C11.25 11.1875 11.25 11.1875 13.25 16.1875 C-3.25 16.1875 -19.75 16.1875 -36.75 16.1875 C-31.64181425 5.9711285 -30.17612774 3.83666614 -19.9375 0.375 C-19.04740234 0.05080078 -18.15730469 -0.27339844 -17.24023438 -0.60742188 C-10.85513988 -2.81782894 -6.08905499 -3.50539634 0 0 Z " fill="#D3E4EC" transform="translate(232.75,144.8125)"/>
<path d="M0 0 C0.928125 0.185625 1.85625 0.37125 2.8125 0.5625 C5.16369399 4.08929099 5.02693452 5.59129485 4.9375 9.75 C4.91945313 10.83667969 4.90140625 11.92335937 4.8828125 13.04296875 C4.85960938 13.87441406 4.83640625 14.70585937 4.8125 15.5625 C3.1625 15.5625 1.5125 15.5625 -0.1875 15.5625 C-0.1875 13.2525 -0.1875 10.9425 -0.1875 8.5625 C-1.1775 8.2325 -2.1675 7.9025 -3.1875 7.5625 C-3.1875 8.5525 -3.1875 9.5425 -3.1875 10.5625 C-4.1775 10.5625 -5.1675 10.5625 -6.1875 10.5625 C-5.09965032 13.81233135 -5.09965032 13.81233135 -3.1875 16.5625 C-2.95322222 18.57844582 -2.77413876 20.600974 -2.625 22.625 C-2.49931641 24.28208984 -2.49931641 24.28208984 -2.37109375 25.97265625 C-2.31050781 26.82730469 -2.24992187 27.68195313 -2.1875 28.5625 C-1.1975 28.5625 -0.2075 28.5625 0.8125 28.5625 C0.750625 27.28375 0.68875 26.005 0.625 24.6875 C0.51953125 22.5078125 0.51953125 22.5078125 0.8125 20.5625 C1.8025 19.9025 2.7925 19.2425 3.8125 18.5625 C5.06914978 21.46850261 5.8125 23.35854584 5.8125 26.5625 C4.8225 26.5625 3.8325 26.5625 2.8125 26.5625 C2.8125 27.5525 2.8125 28.5425 2.8125 29.5625 C4.09125 29.27375 5.37 28.985 6.6875 28.6875 C7.40679687 28.52507812 8.12609375 28.36265625 8.8671875 28.1953125 C11.01969964 27.65775572 11.01969964 27.65775572 12.8125 25.5625 C14.9375 24.9375 14.9375 24.9375 16.8125 24.5625 C16.3175 21.5925 16.3175 21.5925 15.8125 18.5625 C13.8325 17.9025 11.8525 17.2425 9.8125 16.5625 C9.8125 17.8825 9.8125 19.2025 9.8125 20.5625 C9.1525 20.5625 8.4925 20.5625 7.8125 20.5625 C8.24689169 15.63939421 10.3240103 12.97346771 13.8125 9.5625 C16.9375 8.5 16.9375 8.5 19.8125 8.5625 C21.90512133 10.12209514 22.70914491 11.03052528 23.2109375 13.61328125 C23.15181889 19.31822713 22.63158939 23.78851604 18.34765625 28.00390625 C14.34029132 31.4429896 12.10043925 32.68875023 6.91015625 32.6953125 C5.93755859 32.69660156 4.96496094 32.69789063 3.96289062 32.69921875 C2.43438477 32.69341797 2.43438477 32.69341797 0.875 32.6875 C-0.14013672 32.69136719 -1.15527344 32.69523437 -2.20117188 32.69921875 C-3.17505859 32.69792969 -4.14894531 32.69664062 -5.15234375 32.6953125 C-6.49220337 32.69362061 -6.49220337 32.69362061 -7.85913086 32.69189453 C-10.1875 32.5625 -10.1875 32.5625 -13.1875 31.5625 C-13.1875 30.9025 -13.1875 30.2425 -13.1875 29.5625 C-11.5375 29.2325 -9.8875 28.9025 -8.1875 28.5625 C-8.1875 27.5725 -8.1875 26.5825 -8.1875 25.5625 C-8.97125 25.48 -9.755 25.3975 -10.5625 25.3125 C-13.1875 24.5625 -13.1875 24.5625 -14.5 22.5 C-14.726875 21.860625 -14.95375 21.22125 -15.1875 20.5625 C-17.1675 20.5625 -19.1475 20.5625 -21.1875 20.5625 C-19.2075 23.8625 -17.2275 27.1625 -15.1875 30.5625 C-20.02748993 28.62650403 -22.06071707 27.58264948 -25.1875 23.5625 C-25.67674087 20.01550373 -25.88382206 17.76172133 -24.0625 14.625 C-21.20236651 13.00425769 -19.42141331 13.04507387 -16.1875 13.5625 C-13.04881569 16.1902357 -10.4327128 19.13559625 -8.1875 22.5625 C-8.1875 23.2225 -8.1875 23.8825 -8.1875 24.5625 C-7.5275 24.2325 -6.8675 23.9025 -6.1875 23.5625 C-6.64572468 20.09308454 -7.07881683 16.88854951 -8.1875 13.5625 C-8.66639368 9.33227248 -8.59570165 6.55131762 -6.0625 3.125 C-3.1875 0.5625 -3.1875 0.5625 0 0 Z " fill="#3A5940" transform="translate(27.1875,158.4375)"/>
<path d="M0 0 C5.61 0 11.22 0 17 0 C16.67 2.31 16.34 4.62 16 7 C16.33 7.99 16.66 8.98 17 10 C21.13108746 10.30977972 21.13108746 10.30977972 24.9375 8.9375 C26.61875 6.33125 26.61875 6.33125 25 0 C30.61 0 36.22 0 42 0 C42.33762591 7.20268605 41.76709373 9.62108339 39 17 C27.12 17 15.24 17 3 17 C-0.42412946 10.15174108 -0.27045796 7.39251749 0 0 Z " fill="#3D5D43" transform="translate(198,165)"/>
<path d="M0 0 C3.16379511 -0.59321158 5.84777705 -0.71730151 9 0 C13.83593668 3.81390882 17.97252097 9.1709978 20 15 C20.54645739 20.19134519 19.78505162 22.68980107 17 27 C6.34686327 26.04794772 -2.30695846 23.31706892 -12 19 C-11.164372 14.37590307 -8.3516499 12.22323683 -4.9375 9.25 C-4.36966797 8.74339844 -3.80183594 8.23679688 -3.21679688 7.71484375 C-1.8180135 6.46886864 -0.40989267 5.23339027 1 4 C0.67 2.68 0.34 1.36 0 0 Z " fill="#5B8F69" transform="translate(263,132)"/>
<path d="M0 0 C14.19 0 28.38 0 43 0 C39.99179052 2.25615711 37.53921249 3.84923486 34.234375 5.48046875 C33.34492188 5.92197266 32.45546875 6.36347656 31.5390625 6.81835938 C30.61867187 7.27017578 29.69828125 7.72199219 28.75 8.1875 C27.81414062 8.65091797 26.87828125 9.11433594 25.9140625 9.59179688 C23.6111434 10.73150684 21.30643726 11.86743129 19 13 C18.06576355 9.98968256 17.95550089 9.13349732 19 6 C16.99535247 6.68857468 16.99535247 6.68857468 15 8 C14.09294638 10.07410787 14.09294638 10.07410787 13.625 12.4375 C12.5272224 16.25212384 12.33966392 16.78021746 8.8125 19.0625 C7.884375 19.371875 6.95625 19.68125 6 20 C8.31 20.33 10.62 20.66 13 21 C13 22.65 13 24.3 13 26 C5.08 26 -2.84 26 -11 26 C-9.02 23.69 -7.04 21.38 -5 19 C-3.52859036 16.45694066 -3.52859036 16.45694066 -2.625 14.0625 C-2.30789062 13.29035156 -1.99078125 12.51820313 -1.6640625 11.72265625 C-1.44492188 11.15417969 -1.22578125 10.58570313 -1 10 C0.13583456 13.71727674 -0.33329974 15.47051709 -2 19 C-1.34 19 -0.68 19 0 19 C2.22656164 14.25645564 3.46148032 10.27749285 4 5 C3.01 5 2.02 5 1 5 C0.67 6.32 0.34 7.64 0 9 C0 6.03 0 3.06 0 0 Z " fill="#3B5A41" transform="translate(115,165)"/>
<path d="M0 0 C2.55126309 0.47576135 5.03267159 1.00946463 7.52661133 1.73193359 C16.2394418 4.24612998 24.70449709 4.51561176 33.6875 4.625 C35.87925002 4.66156525 38.07082497 4.70203814 40.2624054 4.74765015 C42.22126391 4.78699461 44.18034132 4.81495581 46.1394043 4.84228516 C49 5 49 5 50 6 C50 8.64 50 11.28 50 14 C32.51 14 15.02 14 -3 14 C-4.55024464 10.89951072 -4.28992015 8.42105782 -4 5 C-2 2.0625 -2 2.0625 0 0 Z " fill="#2C2C2C" transform="translate(83,110)"/>
<path d="M0 0 C2.97 0 5.94 0 9 0 C9.02887814 3.47914941 9.04675687 6.95826831 9.0625 10.4375 C9.07087891 11.43072266 9.07925781 12.42394531 9.08789062 13.44726562 C9.09272461 14.86362305 9.09272461 14.86362305 9.09765625 16.30859375 C9.10551147 17.62041626 9.10551147 17.62041626 9.11352539 18.95874023 C9 21 9 21 8 22 C8.061875 22.94875 8.12375 23.8975 8.1875 24.875 C8.0946875 26.421875 8.0946875 26.421875 8 28 C7.35160156 28.35964844 6.70320313 28.71929687 6.03515625 29.08984375 C3.1292225 31.81729405 3.43985394 34.15449765 3.29296875 38.01757812 C3.27169922 39.33918945 3.27169922 39.33918945 3.25 40.6875 C3.20552734 42.02651367 3.20552734 42.02651367 3.16015625 43.39257812 C3.08948573 45.59514277 3.03678061 47.79665131 3 50 C2.26394531 49.52949219 1.52789062 49.05898437 0.76953125 48.57421875 C-0.20628906 47.95160156 -1.18210938 47.32898438 -2.1875 46.6875 C-3.15042969 46.07261719 -4.11335937 45.45773438 -5.10546875 44.82421875 C-7.71450242 43.17992897 -10.35553497 41.58667902 -13 40 C-12.01 31.09 -12.01 31.09 -11 22 C-10.34 22.33 -9.68 22.66 -9 23 C-2.62313587 23.50374999 -2.62313587 23.50374999 3 21 C5.69414415 17.93424976 6.23636914 15.58924813 6 11.625 C5.27975874 6.68265478 3.15256669 3.79924704 0 0 Z " fill="#D1E1E9" transform="translate(214,82)"/>
<path d="M0 0 C0 21.45 0 42.9 0 65 C-45.21 65 -90.42 65 -137 65 C-137 63.02 -137 61.04 -137 59 C-136.67 59 -136.34 59 -136 59 C-136 60.65 -136 62.3 -136 64 C-91.45 64 -46.9 64 -1 64 C-1.33 49.81 -1.66 35.62 -2 21 C-8.27 18.03 -14.54 15.06 -21 12 C-18.62035172 9.62035172 -17.09431401 8.32408665 -14.27734375 6.73828125 C-13.22256836 6.14370117 -13.22256836 6.14370117 -12.14648438 5.53710938 C-11.41751953 5.13298828 -10.68855469 4.72886719 -9.9375 4.3125 C-9.20466797 3.89677734 -8.47183594 3.48105469 -7.71679688 3.05273438 C-2.25796644 0 -2.25796644 0 0 0 Z " fill="#253A29" transform="translate(392,127)"/>
<path d="M0 0 C1.175625 0.4125 2.35125 0.825 3.5625 1.25 C10.2802598 3.50001891 17.14606828 5.22104802 24 7 C24 7.33 24 7.66 24 8 C22.35451172 8.05607422 22.35451172 8.05607422 20.67578125 8.11328125 C19.22132143 8.17896653 17.76689584 8.24541299 16.3125 8.3125 C15.59126953 8.33505859 14.87003906 8.35761719 14.12695312 8.38085938 C9.6578733 8.6053337 6.65516435 9.169519 3 12 C1.58365167 14.83269666 1.6536995 17.47466438 1.4375 20.625 C1.35371094 21.81351563 1.26992187 23.00203125 1.18359375 24.2265625 C1.12300781 25.14179688 1.06242188 26.05703125 1 27 C-1.31 27 -3.62 27 -6 27 C-5.34 23.04 -4.68 19.08 -4 15 C-4.99 15 -5.98 15 -7 15 C-7 13.35 -7 11.7 -7 10 C-4.69 10 -2.38 10 0 10 C0 6.7 0 3.4 0 0 Z " fill="#3B5B41" transform="translate(251,155)"/>
<path d="M0 0 C0 6.27 0 12.54 0 19 C-3.53697481 18.29260504 -5.69669618 17.84071052 -8.76953125 16.37109375 C-9.43017578 16.05849609 -10.09082031 15.74589844 -10.77148438 15.42382812 C-11.44501953 15.09833984 -12.11855469 14.77285156 -12.8125 14.4375 C-13.50537109 14.10814453 -14.19824219 13.77878906 -14.91210938 13.43945312 C-16.61044948 12.63127749 -18.30555769 11.81631623 -20 11 C-17.9861609 8.84261682 -16.09796497 7.34234338 -13.49609375 5.95703125 C-12.50899414 5.43012695 -12.50899414 5.43012695 -11.50195312 4.89257812 C-10.82068359 4.53615234 -10.13941406 4.17972656 -9.4375 3.8125 C-8.75236328 3.44447266 -8.06722656 3.07644531 -7.36132812 2.69726562 C-2.26204487 0 -2.26204487 0 0 0 Z " fill="#3C5C42" transform="translate(391,128)"/>
<path d="M0 0 C9.57 0 19.14 0 29 0 C29 1.65 29 3.3 29 5 C19.43 5 9.86 5 0 5 C0 3.35 0 1.7 0 0 Z " fill="#3D5D43" transform="translate(141,186)"/>
<path d="M0 0 C3.39537852 -0.14575327 6.78994902 -0.23421542 10.1875 -0.3125 C11.14720703 -0.35439453 12.10691406 -0.39628906 13.09570312 -0.43945312 C14.02705078 -0.45556641 14.95839844 -0.47167969 15.91796875 -0.48828125 C16.77156982 -0.51446533 17.6251709 -0.54064941 18.50463867 -0.56762695 C21 0 21 0 26 5 C17.42 5 8.84 5 0 5 C0 3.35 0 1.7 0 0 Z " fill="#3C5D42" transform="translate(179,186)"/>
<path d="M0 0 C0 4.29 0 8.58 0 13 C-12.32142857 6.97321429 -12.32142857 6.97321429 -16 4 C-14.75108386 3.51801537 -13.50081192 3.03954323 -12.25 2.5625 C-11.55390625 2.29566406 -10.8578125 2.02882812 -10.140625 1.75390625 C-6.52386334 0.48011975 -3.89719464 0 0 0 Z " fill="#588B66" transform="translate(247,136)"/>
<path d="M0 0 C0 1.98 0 3.96 0 6 C-6.6 6 -13.2 6 -20 6 C-20 5.34 -20 4.68 -20 4 C-14.39628303 -1.60371697 -7.46143857 -0.36796135 0 0 Z " fill="#37553C" transform="translate(252,186)"/>
<path d="M0 0 C6.27 0 12.54 0 19 0 C19.33 1.65 19.66 3.3 20 5 C13.4 5 6.8 5 0 5 C0 3.35 0 1.7 0 0 Z " fill="#38563E" transform="translate(139,147)"/>
<path d="M0 0 C8.58 0 17.16 0 26 0 C21.7595579 4.2404421 19.16921714 5.29821287 13.1875 5.375 C7.59100697 5.30649947 4.49205747 4.26695089 0 1 C0 0.67 0 0.34 0 0 Z " fill="#3B5B41" transform="translate(206,186)"/>
<path d="M0 0 C1.3921875 0.2784375 1.3921875 0.2784375 2.8125 0.5625 C3.534375 0.706875 4.25625 0.85125 5 1 C5 1.66 5 2.32 5 3 C4.41992188 2.89558594 3.83984375 2.79117187 3.2421875 2.68359375 C0.5844413 2.4072934 -1.39662844 2.35021884 -4 3 C-6.04461407 5.19892456 -7.38079841 7.39532014 -8.80859375 10.03125 C-9.20175781 10.6809375 -9.59492188 11.330625 -10 12 C-10.66 12 -11.32 12 -12 12 C-12.25 4.375 -12.25 4.375 -10 1 C-6.24430137 -1.03010737 -4.06713023 -1.11846081 0 0 Z " fill="#53825F" transform="translate(177,7)"/>
<path d="M0 0 C2.64 0.33 5.28 0.66 8 1 C8.06058594 1.80824219 8.12117188 2.61648437 8.18359375 3.44921875 C8.26738281 4.51785156 8.35117188 5.58648437 8.4375 6.6875 C8.51871094 7.74324219 8.59992188 8.79898438 8.68359375 9.88671875 C8.96451681 12.65086297 9.40156852 15.28945741 10 18 C8.68 18.33 7.36 18.66 6 19 C3.58314288 14.77050005 2.65166856 11.87664009 3 7 C4.32 7 5.64 7 7 7 C7 5.35 7 3.7 7 2 C4.69 2 2.38 2 0 2 C0 1.34 0 0.68 0 0 Z " fill="#0E150F" transform="translate(58,163)"/>
<path d="M0 0 C3.82520221 3.82520221 4.67449181 4.82181797 5.1171875 9.9609375 C4.93672556 13.10097523 3.64109938 15.37424099 2 18 C1.34 18 0.68 18 0 18 C0 12.06 0 6.12 0 0 Z " fill="#4C7657" transform="translate(226,88)"/>
<path d="M0 0 C2.97 0 5.94 0 9 0 C9 6.93 9 13.86 9 21 C8.67 21 8.34 21 8 21 C7.95101562 20.24074219 7.90203125 19.48148438 7.8515625 18.69921875 C7.77679688 17.70535156 7.70203125 16.71148437 7.625 15.6875 C7.55539063 14.70136719 7.48578125 13.71523437 7.4140625 12.69921875 C6.83066448 8.89612411 4.57082282 6.37509498 2.375 3.3125 C1.59125 2.219375 0.8075 1.12625 0 0 Z " fill="#B5C4CA" transform="translate(214,82)"/>
<path d="M0 0 C-3.34003602 4.32239956 -6.32751069 7.17477391 -11 10 C-11 7.03 -11 4.06 -11 1 C-7.27569643 0.30710631 -3.78916254 -0.11144596 0 0 Z " fill="#578864" transform="translate(262,133)"/>
<path d="M0 0 C0.66 0 1.32 0 2 0 C2.84800767 7.692641 3.12152487 15.26291674 3 23 C2.01 22.34 1.02 21.68 0 21 C-0.34057617 18.84521484 -0.34057617 18.84521484 -0.29296875 16.2109375 C-0.2784668 14.79941406 -0.2784668 14.79941406 -0.26367188 13.359375 C-0.23853516 12.37453125 -0.21339844 11.3896875 -0.1875 10.375 C-0.17396484 9.38242188 -0.16042969 8.38984375 -0.14648438 7.3671875 C-0.11105743 4.91091928 -0.06166196 2.45572715 0 0 Z " fill="#3C5C42" transform="translate(132,128)"/>
<path d="M0 0 C-0.66 1.98 -1.32 3.96 -2 6 C-5.63 6 -9.26 6 -13 6 C-10.87838666 3.87838666 -9.2266841 3.07013751 -6.5 1.875 C-5.7059375 1.52179688 -4.911875 1.16859375 -4.09375 0.8046875 C-2 0 -2 0 0 0 Z " fill="#C4D3DB" transform="translate(190,155)"/>
<path d="M0 0 C0.33 0.99 0.66 1.98 1 3 C3.01508358 3.73323796 3.01508358 3.73323796 5 4 C4.01 4 3.02 4 2 4 C3.08784968 7.24983135 3.08784968 7.24983135 5 10 C4.71269945 12.33944736 4.38063221 14.6739143 4 17 C0.9363724 11.31040589 -0.25956379 6.48909466 0 0 Z " fill="#314B36" transform="translate(19,165)"/>
<path d="M0 0 C0.33 0 0.66 0 1 0 C1.33 4.29 1.66 8.58 2 13 C0.35 13 -1.3 13 -3 13 C-3.33 11.02 -3.66 9.04 -4 7 C-2.68 7 -1.36 7 0 7 C0 4.69 0 2.38 0 0 Z " fill="#0C130E" transform="translate(194,165)"/>
<path d="M0 0 C1.41377341 2.63904371 2.37240135 5.07120629 3 8 C1.68 8 0.36 8 -1 8 C-1 8.99 -1 9.98 -1 11 C-1.99 10.67 -2.98 10.34 -4 10 C-3.34 10 -2.68 10 -2 10 C-2.04125 8.72125 -2.0825 7.4425 -2.125 6.125 C-2.1953125 3.9453125 -2.1953125 3.9453125 -2 2 C-1.34 1.34 -0.68 0.68 0 0 Z " fill="#344F39" transform="translate(30,177)"/>
<path d="M0 0 C1.65 0 3.3 0 5 0 C5 1.32 5 2.64 5 4 C3.68 4.33 2.36 4.66 1 5 C0.67 3.35 0.34 1.7 0 0 Z " fill="#548461" transform="translate(203,92)"/>
<path d="M0 0 C3.465 1.98 3.465 1.98 7 4 C7 4.33 7 4.66 7 5 C4.69 5 2.38 5 0 5 C0 3.35 0 1.7 0 0 Z " fill="#334E38" transform="translate(1,187)"/>
<path d="M0 0 C4.24822374 0.47202486 6.19989709 2.96655518 9 6 C7.35 6 5.7 6 4 6 C3.71125 5.38125 3.4225 4.7625 3.125 4.125 C2.06279958 1.86674235 2.06279958 1.86674235 0 0 Z " fill="#1F3022" transform="translate(69,186)"/>
</svg>
